<svg width="22" height="27" viewBox="0 0 22 27" fill="none" xmlns="http://www.w3.org/2000/svg">
<path d="M0.382204 10.2899L10.4094 0.262749C10.5661 0.106268 10.7784 0.0183754 10.9999 0.0183754C11.2213 0.0183754 11.4337 0.106268 11.5904 0.262749L21.6175 10.2899C21.7651 10.4483 21.8455 10.6578 21.8417 10.8743C21.8378 11.0908 21.7502 11.2973 21.5971 11.4504C21.444 11.6035 21.2374 11.6912 21.0209 11.695C20.8045 11.6989 20.595 11.6185 20.4366 11.4709L11.8355 2.87121L11.8355 25.3641C11.8355 25.5857 11.7474 25.7983 11.5907 25.955C11.434 26.1117 11.2215 26.1997 10.9999 26.1997C10.7783 26.1997 10.5657 26.1117 10.409 25.955C10.2523 25.7983 10.1643 25.5857 10.1643 25.3641L10.1643 2.87121L1.56318 11.4709C1.40478 11.6185 1.19527 11.6989 0.978798 11.695C0.762321 11.6912 0.555779 11.6035 0.402681 11.4504C0.249586 11.2973 0.16189 11.0908 0.158072 10.8743C0.154251 10.6578 0.234604 10.4483 0.382204 10.2899Z" fill="#F9F3E6"/>
</svg>
