<svg width="48" height="47" viewBox="0 0 48 47" fill="none" xmlns="http://www.w3.org/2000/svg">
<path d="M33.5073 20.8509C33.5246 20.9245 33.5229 21.0008 33.5032 21.0728L33.4745 21.0661C33.4628 21.0898 33.4492 21.1123 33.4339 21.1336C33.375 20.9327 33.3099 20.7337 33.2387 20.5369C33.2753 20.5518 33.3101 20.5716 33.342 20.5959C33.425 20.6591 33.4834 20.7493 33.5073 20.8509ZM32.9781 8.60294V8.81108C32.4761 7.95862 31.855 7.17234 31.1268 6.47817C29.1214 4.56645 26.4571 3.5 23.6864 3.5C20.9158 3.5 18.2514 4.56645 16.246 6.47817C15.1553 7.51794 14.305 8.76437 13.7349 10.1303C12.2108 10.2032 10.7048 10.5939 9.31809 11.2936L9.29212 11.3067L9.26637 11.3202C7.40308 12.2996 5.86718 13.8029 4.84806 15.6447C3.82894 17.4865 3.37118 19.5864 3.53122 21.6853C3.69126 23.7841 4.4621 25.7903 5.7487 27.4563C6.24709 28.1017 6.81444 28.6851 7.43823 29.1976C7.20662 30.073 7.0844 30.9788 7.07816 31.8945L7.07787 31.9374L7.07863 31.9802C7.0891 32.5728 7.14407 33.1637 7.24309 33.7481C7.66084 36.2568 8.95589 38.5358 10.8975 40.1787C12.8094 41.7965 15.2258 42.6939 17.7276 42.7179C18.2016 42.7452 18.677 42.7426 19.1507 42.7102L19.3042 42.6996L19.4561 42.6757C20.9875 42.4345 22.4342 41.8711 23.7082 41.0389C24.9776 41.8451 26.4123 42.3866 27.9271 42.6132L28.0656 42.6339L28.2054 42.6435C28.681 42.6761 29.1581 42.6786 29.6339 42.6509C31.5638 42.6274 33.4527 42.0856 35.1024 41.0811C36.7858 40.0561 38.1556 38.5886 39.0624 36.8387C39.9693 35.0887 40.3783 33.1234 40.245 31.157C40.1993 30.4818 40.0902 29.8155 39.9208 29.1663C40.5477 28.6561 41.1183 28.0744 41.62 27.4302C42.9175 25.7639 43.6964 23.7528 43.8596 21.6471C44.0228 19.5415 43.5631 17.4344 42.5377 15.5881C41.5124 13.7417 39.9667 12.2377 38.0931 11.2632L32.9781 8.60294ZM23.9952 13.7373C24.0017 13.7448 24.0079 13.7525 24.0139 13.7603C23.9197 13.7562 23.8253 13.7535 23.7308 13.7521L23.7028 13.7517L23.6747 13.7517C23.5634 13.7518 23.4521 13.7537 23.3409 13.7575C23.3446 13.7532 23.3483 13.749 23.3521 13.7448C23.4425 13.667 23.5582 13.6239 23.6781 13.6239C23.7941 13.6239 23.9061 13.6642 23.9952 13.7373ZM17.477 32.0705L17.4778 31.9779C17.644 32.1068 17.8141 32.2304 17.9878 32.3486C17.9487 32.3584 17.9081 32.3631 17.8672 32.3624C17.76 32.3605 17.6566 32.3218 17.5745 32.2526C17.5337 32.2182 17.4994 32.1774 17.4728 32.132L17.477 32.0705ZM14.0705 20.641C14.0735 20.6388 14.0765 20.6366 14.0795 20.6345C14.0208 20.8012 13.9666 20.9694 13.9169 21.139C13.9143 21.1354 13.9117 21.1318 13.9092 21.1282C13.8864 21.0509 13.8847 20.9684 13.9048 20.8895C13.9301 20.7902 13.9886 20.7026 14.0705 20.641ZM29.3998 32.3859C29.3569 32.3799 29.3152 32.3681 29.2759 32.3512C29.5049 32.1982 29.7276 32.036 29.9433 31.8652C29.9459 31.9038 29.9437 31.9427 29.9366 31.9812L29.9316 32.008L29.9271 32.0349C29.9081 32.1469 29.8459 32.247 29.7539 32.3136C29.6618 32.3803 29.5473 32.4081 29.435 32.3911L29.4174 32.3884L29.3998 32.3859ZM23.6781 23.7517C23.7001 23.7517 23.7217 23.756 23.7419 23.7644C23.7519 23.7685 23.7616 23.7737 23.7707 23.7798C23.789 23.792 23.8046 23.8077 23.8167 23.8258C23.8227 23.8348 23.8279 23.8444 23.8321 23.8546C23.8405 23.8749 23.8447 23.8966 23.8447 23.9184C23.8447 23.9292 23.8437 23.9401 23.8415 23.9509C23.8351 23.9832 23.8192 24.0129 23.7959 24.0362C23.7726 24.0595 23.7429 24.0754 23.7106 24.0818C23.6998 24.084 23.6889 24.085 23.6781 24.085C23.6563 24.085 23.6346 24.0808 23.6143 24.0723C23.6042 24.0681 23.5945 24.063 23.5855 24.0569C23.5674 24.0448 23.5517 24.0292 23.5395 24.011C23.5334 24.0018 23.5283 23.9922 23.5241 23.9821C23.5158 23.962 23.5114 23.9403 23.5114 23.9184C23.5114 23.9074 23.5125 23.8965 23.5146 23.8858C23.521 23.8537 23.5368 23.824 23.5602 23.8005C23.5837 23.777 23.6135 23.7613 23.6456 23.7549C23.6562 23.7528 23.6671 23.7517 23.6781 23.7517Z" fill="#F9EEEC" stroke="#D99A8C" stroke-width="7"/>
</svg>
