<svg width="76" height="73" viewBox="0 0 76 73" fill="none" xmlns="http://www.w3.org/2000/svg">
<path d="M54.2292 15.9058C58.3244 14.6787 62.7375 14.8825 66.5218 16.8714C69.3396 18.3369 71.6642 20.5988 73.2062 23.3755C74.7482 26.1522 75.4395 29.3211 75.194 32.4878C74.9486 35.6544 73.7773 38.679 71.8259 41.1849C69.8745 43.6909 67.2292 45.5676 64.2192 46.5815C65.9257 49.0052 66.934 51.8508 67.1345 54.8081C67.3349 57.7655 66.7197 60.7211 65.356 63.3529C63.9922 65.9847 61.9322 68.1916 59.4004 69.7331C56.8687 71.2747 53.9624 72.0917 50.9982 72.0951C50.2069 72.1493 49.4127 72.1493 48.6214 72.0951C44.3995 71.4637 40.5897 69.2124 38 65.8188C35.437 69.2682 31.6236 71.5749 27.3787 72.2437C26.5873 72.2979 25.7932 72.2979 25.0018 72.2437C21.1789 72.2511 17.4777 70.8994 14.5593 68.43C11.6408 65.9606 9.69519 62.5342 9.06978 58.7627C8.91321 57.8421 8.82631 56.911 8.80982 55.9774C8.83246 52.6524 9.86893 49.4134 11.7808 46.6929C8.78549 45.6612 6.15761 43.7754 4.22125 41.268C2.2849 38.7606 1.12476 35.7413 0.883897 32.5824C0.643032 29.4235 1.33198 26.2632 2.86578 23.4912C4.39957 20.7192 6.71115 18.4567 9.51543 16.9828C13.3234 15.0614 17.7239 14.6758 21.808 15.9058C22.0074 11.7407 23.8024 7.81216 26.8206 4.93497C29.8388 2.05779 33.8487 0.452759 38.0186 0.452759C42.1885 0.452759 46.1984 2.05779 49.2166 4.93497C52.2348 7.81216 54.0298 11.7407 54.2292 15.9058Z" fill="#D99A8C"/>
</svg>
