<svg width="68" height="65" viewBox="0 0 68 65" fill="none" xmlns="http://www.w3.org/2000/svg">
<path d="M59.6002 14.9333C56.2036 13.1482 52.2426 12.7652 48.5669 13.8667C48.3879 10.1282 46.7768 6.60213 44.0677 4.01968C41.3587 1.43724 37.7596 -0.00337982 34.0169 -0.00337982C30.2742 -0.00337982 26.675 1.43724 23.966 4.01968C21.257 6.60213 19.6459 10.1282 19.4669 13.8667C15.8011 12.7627 11.8514 13.1088 8.43354 14.8333C5.91652 16.1563 3.84175 18.187 2.46507 20.675C1.08839 23.1631 0.470022 25.9996 0.686213 28.8349C0.902403 31.6702 1.9437 34.3802 3.68169 36.6308C5.41969 38.8813 7.77837 40.574 10.4669 41.5C8.75083 43.9418 7.82053 46.8489 7.80021 49.8333C7.81501 50.6713 7.89301 51.5071 8.03354 52.3333C8.59489 55.7185 10.3412 58.7939 12.9607 61.0103C15.5801 63.2268 18.9022 64.44 22.3335 64.4333C23.0438 64.482 23.7566 64.482 24.4669 64.4333C28.277 63.8331 31.6998 61.7627 34.0002 58.6667C36.3246 61.7126 39.7441 63.7333 43.5335 64.3C44.2438 64.3487 44.9566 64.3487 45.6669 64.3C48.3274 64.2969 50.936 63.5636 53.2084 62.18C55.4808 60.7964 57.3298 58.8155 58.5538 56.4533C59.7779 54.0912 60.3301 51.4383 60.1502 48.7839C59.9702 46.1295 59.0651 43.5754 57.5335 41.4C60.2352 40.49 62.6095 38.8055 64.361 36.5562C66.1125 34.307 67.1638 31.5923 67.3841 28.75C67.6044 25.9077 66.9839 23.0635 65.5998 20.5712C64.2158 18.0789 62.1294 16.0487 59.6002 14.7333V14.9333ZM28.4669 8.46667C29.956 7.04052 31.9383 6.2444 34.0002 6.2444C36.0621 6.2444 38.0444 7.04052 39.5335 8.46667C40.6705 9.60529 41.4425 11.0567 41.7512 12.6359C42.0599 14.2151 41.8913 15.8504 41.2669 17.3333L40.4002 19.3L38.2002 21.2333C36.8476 20.7691 35.4301 20.5216 34.0002 20.5C32.1521 20.5018 30.3246 20.8877 28.6335 21.6333L26.7669 17.3333C26.12 15.8569 25.9361 14.219 26.2397 12.6359C26.5432 11.0529 27.3198 9.59911 28.4669 8.46667ZM8.13354 31.2667C7.3894 29.6292 7.22629 27.7869 7.67117 26.0441C8.11605 24.3014 9.14228 22.7627 10.5802 21.6823C12.0182 20.6019 13.7818 20.0445 15.5794 20.1023C17.3771 20.16 19.1013 20.8295 20.4669 22L22.1002 23.4333L23.2669 26.1C21.597 28.3342 20.6859 31.0441 20.6669 33.8333C20.6273 34.3326 20.6273 34.8341 20.6669 35.3333H18.8335L16.0335 35.6C14.432 35.769 12.8171 35.4445 11.4052 34.67C9.99324 33.8956 8.85171 32.7081 8.13354 31.2667ZM30.1335 51.5333C29.7323 53.3128 28.73 54.8996 27.2956 56.0265C25.8612 57.1534 24.0822 57.7516 22.2584 57.7203C20.4345 57.689 18.6771 57.0301 17.2822 55.8546C15.8874 54.6791 14.9402 53.0588 14.6002 51.2667C14.5682 50.8005 14.5682 50.3328 14.6002 49.8667C14.6123 48.5118 14.9786 47.1837 15.6628 46.0142C16.3469 44.8447 17.3251 43.8745 18.5002 43.2L20.2002 42L23.2335 41.6667C25.1454 44.3264 27.9694 46.1892 31.1669 46.9L30.1335 51.5333ZM34.0002 40.5C32.6817 40.5 31.3927 40.109 30.2964 39.3765C29.2001 38.6439 28.3456 37.6027 27.841 36.3846C27.3364 35.1664 27.2044 33.8259 27.4616 32.5327C27.7189 31.2395 28.3538 30.0516 29.2862 29.1193C30.2185 28.1869 31.4064 27.552 32.6996 27.2948C33.9928 27.0375 35.3333 27.1696 36.5514 27.6741C37.7696 28.1787 38.8108 29.0332 39.5433 30.1295C40.2759 31.2259 40.6669 32.5148 40.6669 33.8333C40.6669 35.6014 39.9645 37.2971 38.7142 38.5474C37.464 39.7976 35.7683 40.5 34.0002 40.5ZM53.4002 51.2333C53.0563 53.2672 51.9273 55.0846 50.2564 56.2942C48.5855 57.5037 46.5064 58.0086 44.4669 57.7C42.8598 57.4735 41.3602 56.7617 40.1688 55.6596C38.9774 54.5576 38.151 53.1179 37.8002 51.5333L37.3335 49.5333L38.0335 46.4667C41.1086 45.4652 43.7148 43.3802 45.3669 40.6L47.0335 41.6H47.3335L49.5335 42.9C50.9629 43.7163 52.103 44.9569 52.7958 46.45C53.4886 47.9432 53.6998 49.6148 53.4002 51.2333ZM59.8669 31.2333C59.2113 32.5583 58.1999 33.6747 56.946 34.4576C55.6921 35.2406 54.2451 35.6592 52.7669 35.6667H51.9669L49.8335 35.3333L47.3335 33.9667C47.3289 30.7257 46.1439 27.5974 44.0002 25.1667L45.4335 23.9333L47.5335 22C48.903 20.7825 50.6532 20.0789 52.4844 20.0098C54.3156 19.9406 56.1138 20.5102 57.5712 21.621C59.0286 22.7318 60.0546 24.3147 60.4734 26.0987C60.8922 27.8826 60.6778 29.7567 59.8669 31.4V31.2333Z" fill="#FFFCF5"/>
</svg>
